<mxfile host="Electron" agent="Mozilla/5.0 (X11; Linux x86_64) AppleWebKit/537.36 (KHTML, like Gecko) draw.io/24.7.5 Chrome/126.0.6478.183 Electron/31.3.0 Safari/537.36" version="24.7.5">
  <diagram name="Page-1" id="fFV3ez6oomVJX8OSqjCT">
    <mxGraphModel dx="2022" dy="1203" grid="1" gridSize="10" guides="1" tooltips="1" connect="1" arrows="1" fold="1" page="1" pageScale="1" pageWidth="850" pageHeight="1100" math="0" shadow="0">
      <root>
        <mxCell id="0" />
        <mxCell id="1" parent="0" />
        <mxCell id="SxcVK-p-XbpZPn0VGyeF-1" value="" style="verticalLabelPosition=bottom;shadow=0;dashed=0;align=center;html=1;verticalAlign=top;shape=mxgraph.electrical.transistors.pmos;pointerEvents=1;strokeWidth=2;" vertex="1" parent="1">
          <mxGeometry x="180" y="190" width="60" height="100" as="geometry" />
        </mxCell>
        <mxCell id="SxcVK-p-XbpZPn0VGyeF-2" value="" style="verticalLabelPosition=bottom;shadow=0;dashed=0;align=center;html=1;verticalAlign=top;shape=mxgraph.electrical.transistors.nmos;pointerEvents=1;strokeWidth=2;" vertex="1" parent="1">
          <mxGeometry x="180" y="290" width="60" height="100" as="geometry" />
        </mxCell>
        <mxCell id="SxcVK-p-XbpZPn0VGyeF-3" value="" style="endArrow=none;html=1;rounded=0;entryX=1;entryY=1;entryDx=0;entryDy=0;entryPerimeter=0;exitX=1;exitY=0;exitDx=0;exitDy=0;exitPerimeter=0;strokeWidth=2;" edge="1" parent="1" source="SxcVK-p-XbpZPn0VGyeF-2" target="SxcVK-p-XbpZPn0VGyeF-1">
          <mxGeometry width="50" height="50" relative="1" as="geometry">
            <mxPoint x="190" y="340" as="sourcePoint" />
            <mxPoint x="240" y="290" as="targetPoint" />
          </mxGeometry>
        </mxCell>
        <mxCell id="SxcVK-p-XbpZPn0VGyeF-4" value="" style="verticalLabelPosition=bottom;shadow=0;dashed=0;align=center;html=1;verticalAlign=top;shape=mxgraph.electrical.transistors.pmos;pointerEvents=1;strokeWidth=2;" vertex="1" parent="1">
          <mxGeometry x="180" y="120" width="60" height="100" as="geometry" />
        </mxCell>
        <mxCell id="SxcVK-p-XbpZPn0VGyeF-5" value="" style="verticalLabelPosition=bottom;shadow=0;dashed=0;align=center;html=1;verticalAlign=top;shape=mxgraph.electrical.transistors.nmos;pointerEvents=1;strokeWidth=2;" vertex="1" parent="1">
          <mxGeometry x="180" y="360" width="60" height="100" as="geometry" />
        </mxCell>
        <mxCell id="SxcVK-p-XbpZPn0VGyeF-6" value="" style="endArrow=none;html=1;rounded=0;exitX=0;exitY=0.5;exitDx=0;exitDy=0;exitPerimeter=0;strokeWidth=2;" edge="1" parent="1" source="SxcVK-p-XbpZPn0VGyeF-2">
          <mxGeometry width="50" height="50" relative="1" as="geometry">
            <mxPoint x="130" y="290" as="sourcePoint" />
            <mxPoint x="180" y="240" as="targetPoint" />
          </mxGeometry>
        </mxCell>
        <mxCell id="SxcVK-p-XbpZPn0VGyeF-8" value="" style="endArrow=none;html=1;rounded=0;strokeWidth=2;" edge="1" parent="1">
          <mxGeometry width="50" height="50" relative="1" as="geometry">
            <mxPoint x="90" y="289.52" as="sourcePoint" />
            <mxPoint x="180" y="289.52" as="targetPoint" />
          </mxGeometry>
        </mxCell>
        <mxCell id="SxcVK-p-XbpZPn0VGyeF-17" value="" style="verticalLabelPosition=bottom;shadow=0;dashed=0;align=center;html=1;verticalAlign=top;shape=mxgraph.electrical.transistors.pmos;pointerEvents=1;strokeWidth=2;" vertex="1" parent="1">
          <mxGeometry x="179.43" y="570" width="60" height="100" as="geometry" />
        </mxCell>
        <mxCell id="SxcVK-p-XbpZPn0VGyeF-18" value="" style="verticalLabelPosition=bottom;shadow=0;dashed=0;align=center;html=1;verticalAlign=top;shape=mxgraph.electrical.transistors.nmos;pointerEvents=1;strokeWidth=2;" vertex="1" parent="1">
          <mxGeometry x="179.43" y="670" width="60" height="100" as="geometry" />
        </mxCell>
        <mxCell id="SxcVK-p-XbpZPn0VGyeF-19" value="" style="endArrow=none;html=1;rounded=0;entryX=1;entryY=1;entryDx=0;entryDy=0;entryPerimeter=0;exitX=1;exitY=0;exitDx=0;exitDy=0;exitPerimeter=0;strokeWidth=2;" edge="1" parent="1" source="SxcVK-p-XbpZPn0VGyeF-18" target="SxcVK-p-XbpZPn0VGyeF-17">
          <mxGeometry width="50" height="50" relative="1" as="geometry">
            <mxPoint x="189.43" y="720" as="sourcePoint" />
            <mxPoint x="239.43" y="670" as="targetPoint" />
          </mxGeometry>
        </mxCell>
        <mxCell id="SxcVK-p-XbpZPn0VGyeF-20" value="" style="verticalLabelPosition=bottom;shadow=0;dashed=0;align=center;html=1;verticalAlign=top;shape=mxgraph.electrical.transistors.pmos;pointerEvents=1;strokeWidth=2;" vertex="1" parent="1">
          <mxGeometry x="179.43" y="500" width="60" height="100" as="geometry" />
        </mxCell>
        <mxCell id="SxcVK-p-XbpZPn0VGyeF-21" value="" style="verticalLabelPosition=bottom;shadow=0;dashed=0;align=center;html=1;verticalAlign=top;shape=mxgraph.electrical.transistors.nmos;pointerEvents=1;strokeWidth=2;" vertex="1" parent="1">
          <mxGeometry x="179.43" y="740" width="60" height="100" as="geometry" />
        </mxCell>
        <mxCell id="SxcVK-p-XbpZPn0VGyeF-22" value="" style="endArrow=none;html=1;rounded=0;exitX=0;exitY=0.5;exitDx=0;exitDy=0;exitPerimeter=0;strokeWidth=2;" edge="1" parent="1" source="SxcVK-p-XbpZPn0VGyeF-18">
          <mxGeometry width="50" height="50" relative="1" as="geometry">
            <mxPoint x="129.43" y="670" as="sourcePoint" />
            <mxPoint x="179.43" y="620" as="targetPoint" />
          </mxGeometry>
        </mxCell>
        <mxCell id="SxcVK-p-XbpZPn0VGyeF-23" value="" style="endArrow=none;html=1;rounded=0;strokeWidth=2;" edge="1" parent="1">
          <mxGeometry width="50" height="50" relative="1" as="geometry">
            <mxPoint x="89.43" y="669.52" as="sourcePoint" />
            <mxPoint x="179.43" y="669.52" as="targetPoint" />
          </mxGeometry>
        </mxCell>
        <mxCell id="SxcVK-p-XbpZPn0VGyeF-24" value="" style="endArrow=none;html=1;rounded=0;strokeWidth=2;" edge="1" parent="1">
          <mxGeometry width="50" height="50" relative="1" as="geometry">
            <mxPoint x="90" y="670" as="sourcePoint" />
            <mxPoint x="90" y="290" as="targetPoint" />
          </mxGeometry>
        </mxCell>
        <mxCell id="SxcVK-p-XbpZPn0VGyeF-25" value="" style="verticalLabelPosition=bottom;shadow=0;dashed=0;align=center;html=1;verticalAlign=top;shape=mxgraph.electrical.transistors.pmos;pointerEvents=1;strokeWidth=2;" vertex="1" parent="1">
          <mxGeometry x="460" y="240" width="60" height="100" as="geometry" />
        </mxCell>
        <mxCell id="SxcVK-p-XbpZPn0VGyeF-26" value="" style="verticalLabelPosition=bottom;shadow=0;dashed=0;align=center;html=1;verticalAlign=top;shape=mxgraph.electrical.transistors.pmos;pointerEvents=1;strokeWidth=2;" vertex="1" parent="1">
          <mxGeometry x="460" y="620" width="60" height="100" as="geometry" />
        </mxCell>
        <mxCell id="SxcVK-p-XbpZPn0VGyeF-27" value="" style="endArrow=none;html=1;rounded=0;exitX=1;exitY=0;exitDx=0;exitDy=0;exitPerimeter=0;entryX=1;entryY=1;entryDx=0;entryDy=0;entryPerimeter=0;strokeWidth=2;" edge="1" parent="1">
          <mxGeometry width="50" height="50" relative="1" as="geometry">
            <mxPoint x="520" y="625.8571428571429" as="sourcePoint" />
            <mxPoint x="520" y="340.14285714285717" as="targetPoint" />
          </mxGeometry>
        </mxCell>
        <mxCell id="SxcVK-p-XbpZPn0VGyeF-28" value="" style="endArrow=none;html=1;rounded=0;strokeWidth=2;" edge="1" parent="1" source="SxcVK-p-XbpZPn0VGyeF-32">
          <mxGeometry width="50" height="50" relative="1" as="geometry">
            <mxPoint x="240" y="290" as="sourcePoint" />
            <mxPoint x="460" y="290" as="targetPoint" />
          </mxGeometry>
        </mxCell>
        <mxCell id="SxcVK-p-XbpZPn0VGyeF-29" value="" style="endArrow=none;html=1;rounded=0;strokeWidth=2;" edge="1" parent="1" source="SxcVK-p-XbpZPn0VGyeF-31">
          <mxGeometry width="50" height="50" relative="1" as="geometry">
            <mxPoint x="239.43" y="670" as="sourcePoint" />
            <mxPoint x="459.43" y="670" as="targetPoint" />
          </mxGeometry>
        </mxCell>
        <mxCell id="SxcVK-p-XbpZPn0VGyeF-30" value="" style="endArrow=none;html=1;rounded=0;strokeWidth=2;" edge="1" parent="1" target="SxcVK-p-XbpZPn0VGyeF-31">
          <mxGeometry width="50" height="50" relative="1" as="geometry">
            <mxPoint x="239.43" y="670" as="sourcePoint" />
            <mxPoint x="459.43" y="670" as="targetPoint" />
          </mxGeometry>
        </mxCell>
        <mxCell id="SxcVK-p-XbpZPn0VGyeF-31" value="" style="shape=waypoint;sketch=0;fillStyle=solid;size=6;pointerEvents=1;points=[];fillColor=none;resizable=0;rotatable=0;perimeter=centerPerimeter;snapToPoint=1;strokeWidth=2;" vertex="1" parent="1">
          <mxGeometry x="230" y="660" width="20" height="20" as="geometry" />
        </mxCell>
        <mxCell id="SxcVK-p-XbpZPn0VGyeF-33" value="" style="endArrow=none;html=1;rounded=0;strokeWidth=2;" edge="1" parent="1" target="SxcVK-p-XbpZPn0VGyeF-32">
          <mxGeometry width="50" height="50" relative="1" as="geometry">
            <mxPoint x="240" y="290" as="sourcePoint" />
            <mxPoint x="460" y="290" as="targetPoint" />
          </mxGeometry>
        </mxCell>
        <mxCell id="SxcVK-p-XbpZPn0VGyeF-32" value="" style="shape=waypoint;sketch=0;fillStyle=solid;size=6;pointerEvents=1;points=[];fillColor=none;resizable=0;rotatable=0;perimeter=centerPerimeter;snapToPoint=1;strokeWidth=2;" vertex="1" parent="1">
          <mxGeometry x="230" y="280" width="20" height="20" as="geometry" />
        </mxCell>
        <mxCell id="SxcVK-p-XbpZPn0VGyeF-34" value="" style="verticalLabelPosition=bottom;shadow=0;dashed=0;align=center;html=1;verticalAlign=top;shape=mxgraph.electrical.transistors.pmos;pointerEvents=1;strokeWidth=2;" vertex="1" parent="1">
          <mxGeometry x="340" y="160" width="60" height="100" as="geometry" />
        </mxCell>
        <mxCell id="SxcVK-p-XbpZPn0VGyeF-35" value="" style="endArrow=none;html=1;rounded=0;strokeWidth=4;" edge="1" parent="1">
          <mxGeometry width="50" height="50" relative="1" as="geometry">
            <mxPoint x="540" y="120" as="sourcePoint" />
            <mxPoint x="160" y="120" as="targetPoint" />
          </mxGeometry>
        </mxCell>
        <mxCell id="SxcVK-p-XbpZPn0VGyeF-36" value="" style="endArrow=none;html=1;rounded=0;strokeWidth=2;" edge="1" parent="1" source="SxcVK-p-XbpZPn0VGyeF-43">
          <mxGeometry width="50" height="50" relative="1" as="geometry">
            <mxPoint x="400" y="290" as="sourcePoint" />
            <mxPoint x="400" y="250" as="targetPoint" />
          </mxGeometry>
        </mxCell>
        <mxCell id="SxcVK-p-XbpZPn0VGyeF-37" value="" style="endArrow=none;html=1;rounded=0;exitX=1;exitY=0;exitDx=0;exitDy=0;exitPerimeter=0;strokeWidth=2;" edge="1" parent="1" source="SxcVK-p-XbpZPn0VGyeF-34">
          <mxGeometry width="50" height="50" relative="1" as="geometry">
            <mxPoint x="400" y="160" as="sourcePoint" />
            <mxPoint x="400" y="120" as="targetPoint" />
          </mxGeometry>
        </mxCell>
        <mxCell id="SxcVK-p-XbpZPn0VGyeF-38" value="" style="shape=waypoint;sketch=0;fillStyle=solid;size=6;pointerEvents=1;points=[];fillColor=none;resizable=0;rotatable=0;perimeter=centerPerimeter;snapToPoint=1;strokeWidth=2;" vertex="1" parent="1">
          <mxGeometry x="230" y="110" width="20" height="20" as="geometry" />
        </mxCell>
        <mxCell id="SxcVK-p-XbpZPn0VGyeF-39" value="" style="shape=waypoint;sketch=0;fillStyle=solid;size=6;pointerEvents=1;points=[];fillColor=none;resizable=0;rotatable=0;perimeter=centerPerimeter;snapToPoint=1;strokeWidth=2;" vertex="1" parent="1">
          <mxGeometry x="390" y="110" width="20" height="20" as="geometry" />
        </mxCell>
        <mxCell id="SxcVK-p-XbpZPn0VGyeF-41" value="" style="pointerEvents=1;verticalLabelPosition=bottom;shadow=0;dashed=0;align=center;html=1;verticalAlign=top;shape=mxgraph.electrical.signal_sources.signal_ground;strokeWidth=2;" vertex="1" parent="1">
          <mxGeometry x="234" y="457" width="12" height="10" as="geometry" />
        </mxCell>
        <mxCell id="SxcVK-p-XbpZPn0VGyeF-42" value="" style="endArrow=none;html=1;rounded=0;strokeWidth=2;" edge="1" parent="1">
          <mxGeometry width="50" height="50" relative="1" as="geometry">
            <mxPoint x="231" y="502" as="sourcePoint" />
            <mxPoint x="247" y="502" as="targetPoint" />
          </mxGeometry>
        </mxCell>
        <mxCell id="SxcVK-p-XbpZPn0VGyeF-44" value="" style="endArrow=none;html=1;rounded=0;strokeWidth=2;" edge="1" parent="1" target="SxcVK-p-XbpZPn0VGyeF-43">
          <mxGeometry width="50" height="50" relative="1" as="geometry">
            <mxPoint x="400" y="290" as="sourcePoint" />
            <mxPoint x="400" y="250" as="targetPoint" />
          </mxGeometry>
        </mxCell>
        <mxCell id="SxcVK-p-XbpZPn0VGyeF-43" value="" style="shape=waypoint;sketch=0;fillStyle=solid;size=6;pointerEvents=1;points=[];fillColor=none;resizable=0;rotatable=0;perimeter=centerPerimeter;snapToPoint=1;strokeWidth=2;" vertex="1" parent="1">
          <mxGeometry x="390" y="280" width="20" height="20" as="geometry" />
        </mxCell>
        <mxCell id="SxcVK-p-XbpZPn0VGyeF-46" value="" style="endArrow=none;html=1;rounded=0;strokeWidth=2;" edge="1" parent="1">
          <mxGeometry width="50" height="50" relative="1" as="geometry">
            <mxPoint x="400" y="840" as="sourcePoint" />
            <mxPoint x="400" y="793" as="targetPoint" />
          </mxGeometry>
        </mxCell>
        <mxCell id="SxcVK-p-XbpZPn0VGyeF-47" value="" style="endArrow=none;html=1;rounded=0;exitX=1;exitY=0;exitDx=0;exitDy=0;exitPerimeter=0;strokeWidth=2;" edge="1" parent="1">
          <mxGeometry width="50" height="50" relative="1" as="geometry">
            <mxPoint x="400" y="707.8571428571429" as="sourcePoint" />
            <mxPoint x="400" y="670" as="targetPoint" />
          </mxGeometry>
        </mxCell>
        <mxCell id="SxcVK-p-XbpZPn0VGyeF-48" value="" style="shape=waypoint;sketch=0;fillStyle=solid;size=6;pointerEvents=1;points=[];fillColor=none;resizable=0;rotatable=0;perimeter=centerPerimeter;snapToPoint=1;strokeWidth=2;" vertex="1" parent="1">
          <mxGeometry x="390" y="660" width="20" height="20" as="geometry" />
        </mxCell>
        <mxCell id="SxcVK-p-XbpZPn0VGyeF-49" value="" style="endArrow=none;html=1;rounded=0;strokeWidth=2;" edge="1" parent="1">
          <mxGeometry width="50" height="50" relative="1" as="geometry">
            <mxPoint x="400" y="833" as="sourcePoint" />
            <mxPoint x="400" y="833" as="targetPoint" />
          </mxGeometry>
        </mxCell>
        <mxCell id="SxcVK-p-XbpZPn0VGyeF-51" value="" style="verticalLabelPosition=bottom;shadow=0;dashed=0;align=center;html=1;verticalAlign=top;shape=mxgraph.electrical.transistors.nmos;pointerEvents=1;strokeWidth=2;" vertex="1" parent="1">
          <mxGeometry x="340" y="700" width="60" height="100" as="geometry" />
        </mxCell>
        <mxCell id="SxcVK-p-XbpZPn0VGyeF-52" value="" style="endArrow=none;html=1;rounded=0;exitX=1;exitY=0;exitDx=0;exitDy=0;exitPerimeter=0;strokeWidth=2;" edge="1" parent="1">
          <mxGeometry width="50" height="50" relative="1" as="geometry">
            <mxPoint x="520" y="243" as="sourcePoint" />
            <mxPoint x="520" y="120" as="targetPoint" />
          </mxGeometry>
        </mxCell>
        <mxCell id="SxcVK-p-XbpZPn0VGyeF-53" value="" style="shape=waypoint;sketch=0;fillStyle=solid;size=6;pointerEvents=1;points=[];fillColor=none;resizable=0;rotatable=0;perimeter=centerPerimeter;snapToPoint=1;strokeWidth=2;" vertex="1" parent="1">
          <mxGeometry x="510" y="110" width="20" height="20" as="geometry" />
        </mxCell>
        <mxCell id="SxcVK-p-XbpZPn0VGyeF-55" value="" style="endArrow=none;html=1;rounded=0;exitX=1;exitY=0;exitDx=0;exitDy=0;exitPerimeter=0;strokeWidth=2;" edge="1" parent="1" source="SxcVK-p-XbpZPn0VGyeF-61">
          <mxGeometry width="50" height="50" relative="1" as="geometry">
            <mxPoint x="520" y="840" as="sourcePoint" />
            <mxPoint x="520" y="717" as="targetPoint" />
          </mxGeometry>
        </mxCell>
        <mxCell id="SxcVK-p-XbpZPn0VGyeF-59" value="" style="endArrow=none;html=1;rounded=0;strokeWidth=4;" edge="1" parent="1">
          <mxGeometry width="50" height="50" relative="1" as="geometry">
            <mxPoint x="539.43" y="839.58" as="sourcePoint" />
            <mxPoint x="160" y="840" as="targetPoint" />
          </mxGeometry>
        </mxCell>
        <mxCell id="SxcVK-p-XbpZPn0VGyeF-50" value="" style="shape=waypoint;sketch=0;fillStyle=solid;size=6;pointerEvents=1;points=[];fillColor=none;resizable=0;rotatable=0;perimeter=centerPerimeter;snapToPoint=1;strokeWidth=2;" vertex="1" parent="1">
          <mxGeometry x="230" y="830" width="20" height="20" as="geometry" />
        </mxCell>
        <mxCell id="SxcVK-p-XbpZPn0VGyeF-60" value="" style="shape=waypoint;sketch=0;fillStyle=solid;size=6;pointerEvents=1;points=[];fillColor=none;resizable=0;rotatable=0;perimeter=centerPerimeter;snapToPoint=1;strokeWidth=2;" vertex="1" parent="1">
          <mxGeometry x="390" y="830" width="20" height="20" as="geometry" />
        </mxCell>
        <mxCell id="SxcVK-p-XbpZPn0VGyeF-61" value="" style="shape=waypoint;sketch=0;fillStyle=solid;size=6;pointerEvents=1;points=[];fillColor=none;resizable=0;rotatable=0;perimeter=centerPerimeter;snapToPoint=1;strokeWidth=2;" vertex="1" parent="1">
          <mxGeometry x="510.0000000000001" y="830" width="20" height="20" as="geometry" />
        </mxCell>
        <mxCell id="SxcVK-p-XbpZPn0VGyeF-62" value="" style="endArrow=none;html=1;rounded=0;strokeWidth=2;" edge="1" parent="1" source="SxcVK-p-XbpZPn0VGyeF-64">
          <mxGeometry width="50" height="50" relative="1" as="geometry">
            <mxPoint x="50" y="490" as="sourcePoint" />
            <mxPoint x="90" y="490" as="targetPoint" />
          </mxGeometry>
        </mxCell>
        <mxCell id="SxcVK-p-XbpZPn0VGyeF-63" value="" style="endArrow=none;html=1;rounded=0;strokeWidth=4;" edge="1" parent="1" target="SxcVK-p-XbpZPn0VGyeF-64">
          <mxGeometry width="50" height="50" relative="1" as="geometry">
            <mxPoint x="50" y="490" as="sourcePoint" />
            <mxPoint x="90" y="490" as="targetPoint" />
          </mxGeometry>
        </mxCell>
        <mxCell id="SxcVK-p-XbpZPn0VGyeF-64" value="" style="shape=waypoint;sketch=0;fillStyle=solid;size=6;pointerEvents=1;points=[];fillColor=none;resizable=0;rotatable=0;perimeter=centerPerimeter;snapToPoint=1;strokeWidth=2;" vertex="1" parent="1">
          <mxGeometry x="80" y="480" width="20" height="20" as="geometry" />
        </mxCell>
        <mxCell id="SxcVK-p-XbpZPn0VGyeF-65" value="" style="endArrow=none;html=1;rounded=0;strokeWidth=4;" edge="1" parent="1">
          <mxGeometry width="50" height="50" relative="1" as="geometry">
            <mxPoint x="520" y="480" as="sourcePoint" />
            <mxPoint x="560" y="480" as="targetPoint" />
          </mxGeometry>
        </mxCell>
        <mxCell id="SxcVK-p-XbpZPn0VGyeF-66" value="" style="shape=waypoint;sketch=0;fillStyle=solid;size=6;pointerEvents=1;points=[];fillColor=none;resizable=0;rotatable=0;perimeter=centerPerimeter;snapToPoint=1;strokeWidth=2;" vertex="1" parent="1">
          <mxGeometry x="510" y="470" width="20" height="20" as="geometry" />
        </mxCell>
      </root>
    </mxGraphModel>
  </diagram>
</mxfile>
